<?xml version="1.0" standalone="no"?>
<!DOCTYPE svg PUBLIC "-//W3C//DTD SVG 20010904//EN"
 "http://www.w3.org/TR/2001/REC-SVG-20010904/DTD/svg10.dtd">
<svg version="1.0" xmlns="http://www.w3.org/2000/svg"
 width="244.000000pt" height="372.000000pt" viewBox="0 0 244.000000 372.000000"
 preserveAspectRatio="xMidYMid meet">
<metadata>
Created by potrace 1.16, written by Peter Selinger 2001-2019
</metadata>
<g transform="translate(0.000000,372.000000) scale(0.100000,-0.100000)"
fill="#000000" stroke="none">
<path d="M380 3574 c-30 -2 -71 -7 -90 -10 -31 -6 -26 -8 52 -24 444 -91 857
-383 1105 -780 365 -585 330 -1351 -86 -1905 -246 -328 -584 -552 -971 -645
-136 -32 -136 -33 -20 -43 213 -18 494 21 705 100 124 46 317 151 425 231 371
277 615 687 680 1142 16 109 16 351 0 460 -91 641 -543 1183 -1158 1389 -186
63 -448 97 -642 85z"/>
</g>
</svg>
